<svg width="110" height="74" fill="none" xmlns="http://www.w3.org/2000/svg">
  <path d="M28.3 31L55.2 4C59 .3 65.4.3 69.3 4l26.9 27 1 1a7.1 7.1 0 010 10v0L69.3 70c-3.9 3.8-10.2 3.8-14.1 0L28.3 43" stroke="#fff" stroke-width="2"/>
  <path d="M80 31L53 4C49.3.3 42.9.3 39 4L12 31l-1 1a7.1 7.1 0 000 10v0l28 28c3.8 3.8 10.2 3.8 14 0l27-27" stroke="#fff" stroke-width="2"/>
  <path d="M24.8 39.4l-.7-1.8h-2.3l-.7 1.8h-.7l2.3-5.7h.5l2.3 5.7h-.7zm-1-2.4l-.6-1.8-.3-.8-.2.8L22 37H24zM28.8 36.4h1.9v2.8a6.2 6.2 0 01-2 .3c-.9 0-1.5-.3-2-.8a3 3 0 01-.7-2.2c0-.5 0-1 .3-1.5.2-.5.6-.8 1-1 .5-.3 1-.4 1.6-.4.6 0 1.2.1 1.7.3l-.2.6-1.5-.3c-.7 0-1.3.2-1.7.6-.4.4-.5 1-.5 1.7 0 .8.1 1.4.5 1.8.4.4 1 .6 1.7.6l1.1-.1V37h-1.2v-.6zM35.3 39.4H32v-5.7h3.2v.6h-2.6V36h2.4v.6h-2.4v2.1h2.6v.6zM41 39.4h-.8l-3-4.8H37V39.4h-.6v-5.7h.8l3 4.8h.1a43.5 43.5 0 010-1.5v-3.3h.6v5.7zM45 34.2c-.6 0-1.1.2-1.5.6-.3.4-.5 1-.5 1.7 0 .8.1 1.4.5 1.8.3.4.8.6 1.5.6.4 0 .9 0 1.4-.2v.6l-1.5.2c-.8 0-1.5-.3-2-.8-.4-.5-.6-1.2-.6-2.2 0-.6 0-1 .3-1.5.2-.5.5-.8 1-1 .4-.3.9-.4 1.4-.4.6 0 1.1.1 1.6.3l-.3.6a3 3 0 00-1.3-.3zM49 36.5l1.6-2.8h.7l-1.9 3.5v2.2h-.7v-2.2l-1.9-3.5h.7l1.6 2.8zM57.4 37.9c0 .5-.2.9-.6 1.2-.3.2-.8.4-1.4.4-.7 0-1.2-.1-1.6-.3v-.6a4.1 4.1 0 001.6.3c.4 0 .8 0 1-.3.2-.1.3-.4.3-.7l-.1-.4a1 1 0 00-.4-.4l-.8-.4c-.6-.1-1-.4-1.2-.6-.2-.3-.3-.6-.3-1 0-.5.1-.8.5-1.1a2 2 0 011.3-.4l1.5.3-.2.6c-.4-.2-.9-.3-1.3-.3s-.7 0-.9.2c-.2.2-.3.4-.3.7 0 .2 0 .3.2.4 0 .2.1.3.3.4l.8.3 1.3.7c.2.3.3.6.3 1zM61.7 39.4h-3.1v-5.7h3.1v.6h-2.5V36h2.4v.6h-2.4v2.1h2.5v.6zM63.7 37v2.4H63v-5.7h1.6c.7 0 1.2.1 1.5.4.4.3.5.7.5 1.2 0 .8-.3 1.3-1.1 1.5l1.5 2.6h-.7L64.9 37h-1.2zm0-.5h.9c.5 0 .8-.1 1-.3.2-.2.3-.5.3-.9 0-.3 0-.6-.3-.8l-1-.2h-1v2.2zM71.2 33.7h.7l-2 5.7h-.7l-2-5.7h.7l1.3 3.7.3 1.2.4-1.2 1.3-3.7zM72.7 39.4v-5.7h.7v5.7h-.7zM77.4 34.2c-.6 0-1.1.2-1.5.6-.3.4-.5 1-.5 1.7 0 .8.1 1.4.5 1.8.3.4.8.6 1.5.6.4 0 .8 0 1.4-.2v.6l-1.5.2c-.8 0-1.5-.3-2-.8-.4-.5-.6-1.2-.6-2.2 0-.6 0-1 .3-1.5.2-.5.5-.8 1-1 .4-.3.8-.4 1.4-.4.6 0 1.1.1 1.6.3l-.3.6a3 3 0 00-1.3-.3zM83.2 39.4H80v-5.7h3.2v.6h-2.5V36H83v.6h-2.3v2.1h2.5v.6zM87.7 37.9c0 .5-.2.9-.6 1.2-.3.2-.8.4-1.5.4-.6 0-1.1-.1-1.5-.3v-.6a4.1 4.1 0 001.6.3c.4 0 .7 0 1-.3.2-.1.3-.4.3-.7l-.1-.4a1 1 0 00-.4-.4l-.9-.4c-.5-.1-.9-.4-1.1-.6-.2-.3-.3-.6-.3-1 0-.5.1-.8.5-1.1a2 2 0 011.3-.4l1.5.3-.2.6c-.4-.2-.9-.3-1.3-.3s-.7 0-.9.2c-.2.2-.3.4-.3.7l.1.4.4.4.8.3 1.2.7c.3.3.4.6.4 1zM48.4 22H50l-2.7 8h-1.9l-2.7-8h1.7l1.5 4.7a16.8 16.8 0 01.4 1.7l.5-1.7 1.5-4.8zM57.5 30h-1.9l-2-3.5-.8.6v2.8H51v-8h1.7v3.7l.7-1 2.1-2.7h2l-2.9 3.6 2.8 4.4z" fill="#fff"/>
  <path d="M63.1 22h1.7l-2.7 8h-1.9l-2.7-8h1.7l1.5 4.7a16.8 16.8 0 01.5 1.7l.4-1.7 1.5-4.8z" fill="#fff"/>
</svg>
